<?xml version="1.0" standalone="no"?>
<!DOCTYPE svg PUBLIC "-//W3C//DTD SVG 1.1//EN"
  "http://www.w3.org/Graphics/SVG/1.1/DTD/svg11.dtd">
<svg width="23.35285186767578mm" height="139.2564697265625mm" viewBox="18.563995361328125 -65.12823486328125 23.35285186767578 139.2564697265625" xmlns="http://www.w3.org/2000/svg" version="1.1">
	<title>svgOutput</title>
	<desc>made with tinkercad</desc>
<path d="M 40.804264068603516 66.21158599853516 L 40.53781509399414 67.26617431640625 L 40.46795654296875 67.54395294189453 L 40.45061111450195 67.58399963378906 L 40.0077018737793 68.60655212402344 L 39.92255783081055 68.80278015136719 L 39.387290954589844 69.63200378417969 L 39.23672103881836 69.86526489257812 L 39.18073272705078 69.95193481445312 L 38.9119987487793 70.24885559082031 L 38.50434875488281 70.69926452636719 L 38.26386260986328 70.95883178710938 L 38.263763427734375 70.95893859863281 L 38.2293701171875 70.98558807373047 L 37.333946228027344 71.68000030517578 L 37.1950569152832 71.78771209716797 L 37.19331741333008 71.78905487060547 L 36.98031234741211 71.90450286865234 L 36.86399841308594 71.96775817871094 L 36.01277160644531 72.43070220947266 L 36.01188278198242 72.43119049072266 L 35.57268142700195 72.58460235595703 L 34.816001892089844 72.84919738769531 L 34.75299835205078 72.87123107910156 L 34.059181213378906 72.99618530273438 L 33.452091217041016 73.10423278808594 L 33.006690979003906 73.11324310302734 L 32.768001556396484 73.11738586425781 L 32.14308547973633 73.12823486328125 L 30.719999313354492 73.04304504394531 L 30.38513946533203 73.02300262451172 L 28.672000885009766 72.8724365234375 L 24.576000213623047 72.51243591308594 L 24.42308807373047 72.4990005493164 L 23.8160343170166 72.40652465820312 L 20.792016983032227 71.94599914550781 L 20.791637420654297 71.9458236694336 L 20.479999542236328 71.8016128540039 L 19.568876266479492 71.37999725341797 L 19.568878173828125 70.82459259033203 L 19.568880081176758 69.63200378417969 L 19.56888771057129 65.53600311279297 L 19.568954467773438 32.768001556396484 L 19.569021224975586 1.1102230246251565e-16 L 19.569053649902344 -16.384000778198242 L 19.56906509399414 -22.101900100708008 L 19.57654571533203 -24.576000213623047 L 19.577285766601562 -24.82073211669922 L 19.577299118041992 -27.68793296813965 L 19.578046798706055 -28.610979080200195 L 19.579669952392578 -29.480037689208984 L 19.58022689819336 -30.01521110534668 L 19.5804500579834 -30.23037338256836 L 19.57897186279297 -30.735803604125977 L 19.5787353515625 -30.817094802856445 L 19.57821273803711 -30.890029907226562 L 19.57713508605957 -31.040557861328125 L 19.576602935791016 -31.21637725830078 L 19.5690860748291 -32.741580963134766 L 19.56895637512207 -32.768001556396484 L 19.563995361328125 -33.77442932128906 L 19.56497573852539 -35.52177047729492 L 19.565441131591797 -36.354248046875 L 19.565513610839844 -38.98564529418945 L 19.566986083984375 -39.10812759399414 L 19.58924674987793 -40.959999084472656 L 19.68771743774414 -49.152000427246094 L 19.69782257080078 -49.992679595947266 L 19.703786849975586 -50.48888397216797 L 19.704057693481445 -50.511322021484375 L 19.72772216796875 -50.51802062988281 L 20.311777114868164 -50.6833610534668 L 20.479999542236328 -50.716575622558594 L 20.71354103088379 -50.7626838684082 L 21.06072998046875 -50.831233978271484 L 22.08318328857422 -50.9041633605957 L 23.64789390563965 -51.065792083740234 L 24.576000213623047 -51.11924743652344 L 24.71018409729004 -51.126976013183594 L 24.863689422607422 -50.892887115478516 L 24.925399780273438 -50.75136184692383 L 24.98012351989746 -50.68889236450195 L 25.05042266845703 -50.60811996459961 L 25.14915657043457 -50.49467468261719 L 25.40367889404297 -50.20222473144531 L 25.424327850341797 -50.17607879638672 L 25.42439079284668 -50.17599868774414 L 25.703752517700195 -49.8222541809082 L 25.795085906982422 -49.74403762817383 L 25.823997497558594 -49.71928024291992 L 25.88795280456543 -49.66450881958008 L 26.4859561920166 -49.152000427246094 L 26.55621337890625 -49.0917854309082 L 26.624000549316406 -49.048736572265625 L 26.819442749023438 -48.92461395263672 L 27.519062042236328 -48.52976989746094 L 27.752513885498047 -48.44423294067383 L 28.0013427734375 -48.353057861328125 L 28.050844192504883 -48.334922790527344 L 28.368465423583984 -48.189884185791016 L 28.553272247314453 -48.13569641113281 L 28.59818458557129 -48.12799835205078 L 28.672000885009766 -48.11534881591797 L 28.775388717651367 -48.09762954711914 L 29.423213958740234 -47.959495544433594 L 29.630159378051758 -47.91537094116211 L 29.63105010986328 -47.91518020629883 L 29.83370590209961 -47.916255950927734 L 29.997772216796875 -47.9171257019043 L 30.395341873168945 -47.91902542114258 L 30.719999313354492 -47.91020202636719 L 30.724000930786133 -47.910091400146484 L 30.798830032348633 -47.92095184326172 L 31.674152374267578 -48.047969818115234 L 31.7557315826416 -48.05980682373047 L 31.79729652404785 -48.065406799316406 L 31.803312301635742 -48.06757354736328 L 31.80991554260254 -48.069950103759766 L 31.989233016967773 -48.12799835205078 L 32.768001556396484 -48.38010025024414 L 32.82253646850586 -48.39775466918945 L 32.82360076904297 -48.398101806640625 L 33.03035354614258 -48.50676345825195 L 33.046485900878906 -48.515228271484375 L 33.77430725097656 -48.89699935913086 L 33.79199981689453 -48.91053009033203 L 33.817874908447266 -48.93031692504883 L 34.126529693603516 -49.152000427246094 L 34.40514373779297 -49.352108001708984 L 34.469696044921875 -49.40340042114258 L 34.63358688354492 -49.53363037109375 L 34.697181701660156 -49.60273742675781 L 34.77342987060547 -49.68559265136719 L 34.816001892089844 -49.73185348510742 L 35.16181945800781 -50.107635498046875 L 35.229007720947266 -50.17599868774414 L 35.36289596557617 -50.312232971191406 L 35.42163848876953 -50.40165710449219 L 35.491085052490234 -50.507381439208984 L 35.84000015258789 -51.028770446777344 L 35.95317840576172 -51.19789505004883 L 35.95417404174805 -51.20000076293945 L 35.97510528564453 -51.24422836303711 L 36.19640350341797 -51.711875915527344 L 36.34254455566406 -52.06250762939453 L 36.38594436645508 -52.16663360595703 L 36.399959564208984 -52.2239990234375 L 36.490020751953125 -52.592647552490234 L 36.49848937988281 -52.62730407714844 L 36.65461730957031 -53.192771911621094 L 36.65882873535156 -53.24800109863281 L 36.72023010253906 -54.05290603637695 L 36.730079650878906 -54.182044982910156 L 36.735843658447266 -54.25 L 36.73551940917969 -54.25336456298828 L 36.7326545715332 -54.283451080322266 L 36.71556091308594 -54.46287536621094 L 36.67164611816406 -55.07436752319336 L 36.66852569580078 -55.112037658691406 L 36.653289794921875 -55.29600143432617 L 36.652408599853516 -55.306644439697266 L 36.57068634033203 -55.61431884765625 L 36.45119857788086 -56.07918167114258 L 36.38929748535156 -56.31999969482422 L 36.38594436645508 -56.333045959472656 L 36.36899948120117 -56.37368392944336 L 36.211082458496094 -56.75239562988281 L 36.19640350341797 -56.78759765625 L 35.95317840576172 -57.30210494995117 L 35.92587661743164 -57.34400177001953 L 35.851051330566406 -57.458824157714844 L 35.84122085571289 -57.47391128540039 L 35.84000015258789 -57.475730895996094 L 35.36289596557617 -58.18761444091797 L 35.267295837402344 -58.28683090209961 L 35.189083099365234 -58.36800003051758 L 35.01297378540039 -58.5507698059082 L 34.816001892089844 -58.766239166259766 L 34.63333511352539 -58.9660530090332 L 34.384552001953125 -59.155025482177734 L 34.318817138671875 -59.203285217285156 L 34.061737060546875 -59.391998291015625 L 33.79199981689453 -59.59001159667969 L 33.77430725097656 -59.60300064086914 L 33.74502944946289 -59.61906051635742 L 32.83091735839844 -60.12008285522461 L 32.768001556396484 -60.139251708984375 L 32.590362548828125 -60.19337844848633 L 32.27789306640625 -60.2885856628418 L 32.119564056396484 -60.33682632446289 L 31.85908317565918 -60.41600036621094 L 31.79770851135254 -60.434654235839844 L 31.624319076538086 -60.459800720214844 L 31.40709114074707 -60.49130630493164 L 31.051776885986328 -60.54283905029297 L 30.724000930786133 -60.589908599853516 L 30.719999313354492 -60.58979797363281 L 30.395341873168945 -60.58097457885742 L 29.997772216796875 -60.5828742980957 L 29.632335662841797 -60.57554626464844 L 29.130373001098633 -60.47056579589844 L 29.124279022216797 -60.46929168701172 L 28.841150283813477 -60.41007614135742 L 28.672000885009766 -60.38127899169922 L 28.554351806640625 -60.36125183105469 L 28.492525100708008 -60.337162017822266 L 28.050844192504883 -60.165077209472656 L 27.62564468383789 -60.02202224731445 L 27.5179500579834 -59.9722900390625 L 27.45200538635254 -59.9317626953125 L 27.350923538208008 -59.86964416503906 L 27.33746337890625 -59.86137390136719 L 27.213788986206055 -59.78696823120117 L 26.624000549316406 -59.432132720947266 L 26.56456184387207 -59.3963737487793 L 26.559524536132812 -59.391998291015625 L 26.220136642456055 -59.09731674194336 L 25.712068557739258 -58.6707649230957 L 25.532642364501953 -58.45500183105469 L 25.457727432250977 -58.36800003051758 L 25.363462448120117 -58.25852966308594 L 24.978750228881836 -57.81174850463867 L 24.910350799560547 -57.71377182006836 L 24.8911075592041 -57.68354797363281 L 24.70263671875 -57.38754653930664 L 24.576000213623047 -57.392730712890625 L 23.882854461669922 -57.421119689941406 L 23.430580139160156 -57.44469451904297 L 21.36936378479004 -57.66366958618164 L 21.28274917602539 -57.6706657409668 L 20.669008255004883 -57.720218658447266 L 20.479999542236328 -57.82980728149414 L 20.433696746826172 -57.85665512084961 L 19.5666446685791 -58.04658889770508 L 19.566509246826172 -58.23583221435547 L 19.566219329833984 -58.64504623413086 L 19.570537567138672 -58.77663040161133 L 19.577299118041992 -60.96138381958008 L 19.571502685546875 -61.439998626708984 L 19.56906509399414 -61.641212463378906 L 19.56895637512207 -62.06678009033203 L 19.568876266479492 -62.380001068115234 L 20.479999542236328 -62.80161666870117 L 20.792016983032227 -62.94599914550781 L 21.563243865966797 -63.06348419189453 L 24.42308807373047 -63.499000549316406 L 24.576000213623047 -63.5124397277832 L 28.672000885009766 -63.872432708740234 L 30.38513946533203 -64.02300262451172 L 30.631166458129883 -64.03772735595703 L 30.719999313354492 -64.04304504394531 L 32.133697509765625 -64.12767028808594 L 32.14308547973633 -64.12823486328125 L 32.495704650878906 -64.1212387084961 L 32.768001556396484 -64.11639404296875 L 33.452091217041016 -64.10423278808594 L 34.059181213378906 -63.9957275390625 L 34.75299835205078 -63.87069320678711 L 34.816001892089844 -63.84870529174805 L 35.57268142700195 -63.584598541259766 L 35.848690032958984 -63.487998962402344 L 36.01188278198242 -63.430885314941406 L 36.86399841308594 -62.96755599975586 L 36.98031234741211 -62.90431213378906 L 37.19331741333008 -62.78889846801758 L 37.19506072998047 -62.78754806518555 L 38.2293701171875 -61.98554992675781 L 38.263763427734375 -61.95894241333008 L 38.26396179199219 -61.9587287902832 L 38.50434875488281 -61.69926071166992 L 38.73899841308594 -61.439998626708984 L 38.9119987487793 -61.24885177612305 L 39.18073272705078 -60.951934814453125 L 39.23672103881836 -60.865264892578125 L 39.92255783081055 -59.80278015136719 L 40.0077018737793 -59.60654830932617 L 40.10063171386719 -59.391998291015625 L 40.46795654296875 -58.54395294189453 L 40.53781509399414 -58.26597213745117 L 40.770751953125 -57.34400177001953 L 40.804264068603516 -57.211360931396484 L 40.83143997192383 -56.88140869140625 L 40.916847229003906 -55.84000015258789 L 40.916847229003906 -55.29600143432617 L 40.916847229003906 -53.24800109863281 L 40.916847229003906 -51.20000076293945 L 40.916847229003906 -49.152000427246094 L 40.916847229003906 -47.104000091552734 L 40.916847229003906 -45.055999755859375 L 40.916847229003906 -43.007999420166016 L 40.916847229003906 -40.959999084472656 L 40.916847229003906 -38.9119987487793 L 40.916847229003906 -36.86399841308594 L 40.916847229003906 -34.816001892089844 L 40.916847229003906 -32.768001556396484 L 40.916847229003906 -30.719999313354492 L 40.916847229003906 -28.672000885009766 L 40.916847229003906 -26.624000549316406 L 40.916847229003906 -24.576000213623047 L 40.916847229003906 -22.527999877929688 L 40.916847229003906 -20.479999542236328 L 40.916847229003906 -18.43199920654297 L 40.916847229003906 -16.384000778198242 L 40.916847229003906 -14.336000442504883 L 40.916847229003906 -12.288000106811523 L 40.916847229003906 -10.239999771118164 L 40.916847229003906 -8.192000389099121 L 40.916847229003906 -6.144000053405762 L 40.916847229003906 -4.0960001945495605 L 40.916847229003906 -2.0480000972747803 L 40.916847229003906 1.1102230246251565e-16 L 40.916847229003906 2.0480000972747803 L 40.916847229003906 4.0960001945495605 L 40.916847229003906 6.144000053405762 L 40.916847229003906 8.192000389099121 L 40.916847229003906 10.239999771118164 L 40.916847229003906 12.288000106811523 L 40.916847229003906 14.336000442504883 L 40.916847229003906 16.384000778198242 L 40.916847229003906 18.43199920654297 L 40.916847229003906 20.479999542236328 L 40.916847229003906 22.527999877929688 L 40.916847229003906 24.576000213623047 L 40.916847229003906 26.624000549316406 L 40.916847229003906 28.672000885009766 L 40.916847229003906 30.719999313354492 L 40.916847229003906 32.768001556396484 L 40.916847229003906 34.816001892089844 L 40.916847229003906 36.86399841308594 L 40.916847229003906 38.9119987487793 L 40.916847229003906 40.959999084472656 L 40.916847229003906 43.007999420166016 L 40.916847229003906 45.055999755859375 L 40.916847229003906 47.104000091552734 L 40.916847229003906 49.152000427246094 L 40.916847229003906 51.20000076293945 L 40.916847229003906 53.24800109863281 L 40.916847229003906 55.29600143432617 L 40.916847229003906 57.34400177001953 L 40.916847229003906 59.391998291015625 L 40.916847229003906 61.439998626708984 L 40.916847229003906 63.487998962402344 L 40.916847229003906 64.83999633789062 L 40.85976791381836 65.53600311279297 L 40.83143997192383 65.88140869140625 L 40.80486297607422 66.20430755615234 L 40.804264068603516 66.21158599853516 z" fill="none" stroke="rgb(255,0,0)" stroke-width="0.001mm" />
</svg>